# xmcd
#
# Track frame offsets:
#	150
#	10142
#	22726
#	31948
#	41010
#	52975
#	65416
#	70410
#	77785
#	89832
#	100677
#	110793
#
# Disc length: 1603 seconds
#
# Revision: 0
# Processed by: cddbd v1.5.2PL0 Copyright (c) Steve Scherf et al.
# Submitted via: EasyCDDAExtractor 12.0.5.1
#
DISCID=9706410c
DTITLE=Jim Reeves - Pure Jim Reeves
DYEAR=2007
DGENRE=Country
TTITLE0=He'll Have To Go (Live)
TTITLE1=Bimbo
TTITLE2=Home
TTITLE3=Billy Bayou (Live)
TTITLE4=Mexican Joe
TTITLE5=Drinking Tequila
TTITLE6=According To My Heart (Live)
TTITLE7=Blue Boy (Live)
TTITLE8=Am I Losing You (Live)
TTITLE9=I Love You More (Live)
TTITLE10=Anna Marie (Live)
TTITLE11=I'm Gettin' Better (Live)
EXTD=
EXTT0=
EXTT1=
EXTT2=
EXTT3=
EXTT4=
EXTT5=
EXTT6=
EXTT7=
EXTT8=
EXTT9=
EXTT10=
EXTT11=
PLAYORDER=
